<svg width="120" height="30" viewBox="0 0 120 30" fill="none" xmlns="http://www.w3.org/2000/svg">
<g clip-path="url(#clip0_1443_42096)">
<path d="M113.525 15.3354C112.996 14.2416 112.197 13.3003 111.204 12.6004C110.236 11.9579 109.1 11.6129 107.938 11.608C106.973 11.6047 106.023 11.8393 105.171 12.2912C104.319 12.7431 103.592 13.3982 103.054 14.1985C102.624 14.8333 102.325 15.5481 102.176 16.3005C102.027 17.0528 102.031 17.8274 102.187 18.5783C102.357 19.4581 102.726 20.2872 103.267 21.0018C103.807 21.7164 104.505 22.2976 105.305 22.7006C106.105 23.1036 106.987 23.3177 107.883 23.3264C108.779 23.3352 109.665 23.1384 110.474 22.7511C110.761 22.612 111.076 22.5386 111.396 22.5362C111.636 22.5384 111.875 22.5793 112.103 22.6574C112.365 22.7547 112.606 22.9028 112.811 23.0932C113.016 23.2836 113.182 23.5125 113.298 23.767C113.42 24.0136 113.491 24.2822 113.506 24.5568C113.522 24.8314 113.482 25.1063 113.388 25.365C113.3 25.6307 113.16 25.8763 112.976 26.0876C112.792 26.2988 112.569 26.4716 112.318 26.5957C110.948 27.2361 109.454 27.5682 107.942 27.5686C105.597 27.5717 103.325 26.7595 101.514 25.2712C99.7025 23.7828 98.4652 21.711 98.0137 19.4106C97.7407 18.0277 97.7599 16.6031 98.0701 15.2282C98.3803 13.8532 98.9746 12.5584 99.8149 11.4267C100.655 10.2951 101.723 9.35174 102.949 8.65722C104.176 7.96269 105.534 7.53237 106.937 7.39388C108.34 7.25539 109.756 7.4118 111.094 7.85306C112.433 8.29432 113.665 9.01068 114.71 9.95613C115.755 10.9016 116.591 12.0552 117.165 13.343C117.738 14.6307 118.035 16.024 118.038 17.4335C118.038 17.7124 117.983 17.9885 117.876 18.2459C117.768 18.5032 117.611 18.7365 117.412 18.9323C117.214 19.128 116.978 19.2821 116.719 19.3857C116.46 19.4893 116.183 19.5403 115.904 19.5356L107.528 19.6372C106.965 19.6351 106.425 19.4097 106.028 19.0105C105.631 18.6113 105.409 18.0708 105.41 17.5078C105.404 17.2295 105.453 16.9527 105.554 16.6935C105.656 16.4343 105.808 16.1979 106.002 15.998C106.196 15.798 106.427 15.6386 106.683 15.5289C106.939 15.4192 107.214 15.3614 107.492 15.3589L113.158 15.3237L113.525 15.3354Z" fill="#42766E"/>
<path d="M93.5986 25.2203C93.6113 25.5307 93.5612 25.8406 93.4513 26.1312C93.3413 26.4218 93.1737 26.6871 92.9585 26.9113C92.7434 27.1355 92.4852 27.3139 92.1993 27.4357C91.9135 27.5576 91.606 27.6204 91.2953 27.6204C90.9846 27.6204 90.6771 27.5576 90.3913 27.4357C90.1055 27.3139 89.8472 27.1355 89.6321 26.9113C89.4169 26.6871 89.2493 26.4218 89.1394 26.1312C89.0294 25.8406 88.9793 25.5307 88.9921 25.2203V16.652C89.0014 15.4347 88.5274 14.2634 87.674 13.3954C86.8205 12.5273 85.6575 12.0334 84.4403 12.022C84.0731 12.032 83.7079 12.0791 83.3502 12.1627C83.1642 12.213 82.9724 12.238 82.7797 12.2369C82.3732 12.2395 81.974 12.1285 81.6271 11.9165C81.3582 11.7582 81.1236 11.5477 80.9371 11.2974C80.7505 11.0472 80.6159 10.7622 80.541 10.4592C80.3924 9.85531 80.4874 9.21724 80.8054 8.68282C81.1234 8.14841 81.6389 7.76056 82.2406 7.60308C82.9617 7.43368 83.6995 7.34587 84.4403 7.34131C86.8883 7.36504 89.227 8.35845 90.9438 10.1038C92.6605 11.8491 93.6152 14.2039 93.5986 16.652V25.2203Z" fill="#42766E"/>
<path fill-rule="evenodd" clip-rule="evenodd" d="M80.248 16.652V25.2203C80.2227 25.8495 79.9551 26.4446 79.501 26.8808C79.0469 27.3171 78.4416 27.5608 77.8119 27.5608C77.1821 27.5608 76.5768 27.3171 76.1228 26.8808C75.6687 26.4446 75.401 25.8495 75.3758 25.2203V16.652C75.3404 15.4191 74.8257 14.2486 73.9411 13.3891C73.0566 12.5295 71.8718 12.0487 70.6384 12.0487C69.405 12.0487 68.2202 12.5295 67.3356 13.3891C66.451 14.2486 65.9364 15.4191 65.901 16.652V25.2203C65.8758 25.8495 65.6081 26.4446 65.154 26.8808C64.6999 27.3171 64.0946 27.5608 63.4649 27.5608C62.8352 27.5608 62.2299 27.3171 61.7758 26.8808C61.3217 26.4446 61.054 25.8495 61.0288 25.2203V16.652C61.0288 11.518 65.3501 7.34131 70.656 7.34131C75.9618 7.34131 80.248 11.518 80.248 16.652Z" fill="#42766E"/>
<path fill-rule="evenodd" clip-rule="evenodd" d="M56.2386 9.76766V16.5153C56.1962 19.4148 55.0337 22.1855 52.9945 24.2473C50.9553 26.309 48.1976 27.502 45.2987 27.5763H45.0642C42.1885 27.5509 39.437 26.4009 37.3985 24.3725C35.2527 22.2354 34.0332 19.3404 34.0032 16.3121V9.76766C34.0461 9.14773 34.3226 8.56717 34.777 8.14322C35.2313 7.71926 35.8296 7.48347 36.451 7.48347C37.0724 7.48347 37.6707 7.71926 38.125 8.14322C38.5793 8.56717 38.8559 9.14773 38.8988 9.76766V16.3512C38.8725 17.9591 39.4669 19.5152 40.5584 20.6962C41.6499 21.8772 43.1545 22.5921 44.7595 22.6924C44.8692 22.7203 44.9824 22.7321 45.0955 22.7276C46.6932 22.7297 48.2306 22.1177 49.3898 21.0181C50.549 19.9186 51.2412 18.4156 51.3234 16.82V9.76766C51.3286 9.12137 51.5898 8.50348 52.0497 8.04941C52.5096 7.59534 53.1308 7.34212 53.7771 7.34524C54.4214 7.35112 55.0382 7.60702 55.4974 8.05896C55.9567 8.5109 56.2224 9.12355 56.2386 9.76766Z" fill="#42766E"/>
<path fill-rule="evenodd" clip-rule="evenodd" d="M31.1863 24.9389L31.1551 25.0835V25.1226C31.1509 25.7778 30.8869 26.4047 30.421 26.8654C29.9551 27.3262 29.3254 27.5833 28.6701 27.5802C28.3935 27.5753 28.1199 27.5224 27.8614 27.4239C25.5965 26.6714 23.6245 25.2279 22.2228 23.2963C20.8211 21.3648 20.0602 19.0424 20.0471 16.6558V5.46976C20.0729 4.80987 20.3532 4.18559 20.8293 3.72784C21.3053 3.27009 21.94 3.0144 22.6004 3.0144C23.2608 3.0144 23.8956 3.27009 24.3716 3.72784C24.8476 4.18559 25.1279 4.80987 25.1537 5.46976V16.6558C25.1602 17.9775 25.5762 19.2647 26.3445 20.3402C27.1128 21.4156 28.1956 22.2265 29.4437 22.6611C29.9299 22.821 30.3564 23.124 30.6673 23.5305C30.9783 23.937 31.1592 24.4279 31.1863 24.9389Z" fill="#42766E"/>
<path d="M14.2099 4.954H11.0842C8.08747 4.954 6.39569 6.72783 6.22768 10.088C6.19974 10.1857 6.18786 10.2873 6.19252 10.3888V12.819H11.3304C11.6052 12.8164 11.8779 12.8687 12.1322 12.9729C12.3866 13.0772 12.6176 13.2312 12.8116 13.4259C13.0056 13.6206 13.1587 13.8522 13.262 14.1069C13.3652 14.3617 13.4165 14.6345 13.4129 14.9093C13.417 15.4403 13.2104 15.9511 12.8383 16.3299C12.4661 16.7086 11.959 16.9242 11.4281 16.9293H6.20424V25.5562C6.20424 26.6541 5.06727 27.5801 3.71931 27.5801C2.37135 27.5801 1.19922 26.6737 1.19922 25.5562V10.0411C1.22683 9.89033 1.23862 9.73712 1.23438 9.58393V9.52533C1.73059 4.95009 3.57866 2.45344 7.20056 1.43759C7.39474 1.37452 7.59516 1.3326 7.79834 1.31256H7.82179C8.90332 1.04678 10.0135 0.915551 11.1272 0.921847H14.2099C15.5579 0.921847 16.6988 1.84783 16.6988 2.94574C16.6988 4.04364 15.5813 4.954 14.2099 4.954Z" fill="#42766E"/>
</g>
<defs>
<clipPath id="clip0_1443_42096">
<rect width="118.886" height="28.9869" fill="white" transform="translate(0.218506 0.390625)"/>
</clipPath>
</defs>
</svg>
